# This file uses centimeters as units for non-parametric coordinates.

mtllib Road_Turn.mtl
g default
v 50.000000 0.000000 50.000000
v -50.000000 0.000000 -50.000000
v 50.000000 0.000000 -50.000000
v -40.000000 0.000000 -50.000000
v 50.000000 0.000000 40.000000
v -50.000000 0.000000 -40.000000
v -40.000000 0.000000 -40.000000
v 50.000000 0.000000 -40.000000
v 40.000000 0.000000 50.000000
v 40.000000 0.000000 40.000000
v 40.000000 0.000000 -40.000000
v 40.000000 0.000000 -50.000000
v 13.291650 0.000000 46.013069
v -1.288983 0.000000 40.000000
v -13.854481 0.000000 30.908070
v -22.798342 -0.000000 22.798342
v -30.175655 0.000000 13.823250
v -41.860321 0.000000 -4.365901
v -40.000000 0.000000 -0.107947
v -38.654667 0.000000 2.455727
v -50.000000 0.000000 -32.872391
v -47.774506 0.000000 -20.318684
v 24.140018 0.000000 48.802002
v 34.028381 0.000000 50.000000
vt 0.001324 0.631076
vt 0.034093 0.631076
vt 0.034093 0.663845
vt 0.001324 0.663845
vt 0.296244 0.631076
vt 0.296244 0.663845
vt 0.296244 0.336156
vt 0.296244 0.368924
vt 0.329013 0.368924
vt 0.329013 0.336156
vt 0.329013 0.631076
vt 0.329013 0.663845
vt 0.208723 0.349220
vt 0.160944 0.368924
vt 0.119769 0.398718
vt 0.090461 0.425292
vt 0.066286 0.454703
vt 0.027997 0.514307
vt 0.034093 0.500354
vt 0.038501 0.491953
vt 0.001324 0.607719
vt 0.008616 0.566582
vt 0.244272 0.340081
vt 0.276675 0.336156
vn 0.000000 1.000000 0.000000
vn 0.000000 1.000000 0.000000
vn 0.000000 1.000000 0.000000
vn 0.000000 1.000000 0.000000
vn 0.000000 1.000000 0.000000
vn 0.000000 1.000000 0.000000
vn 0.000000 1.000000 0.000000
vn 0.000000 1.000000 0.000000
vn 0.000000 1.000000 0.000000
vn 0.000000 1.000000 0.000000
vn 0.000000 1.000000 0.000000
vn 0.000000 1.000000 0.000000
vn 0.000000 1.000000 0.000000
vn 0.000000 1.000000 0.000000
vn -0.000000 1.000000 -0.000000
vn -0.000000 1.000000 0.000000
vn 0.000000 1.000000 0.000000
vn 0.000000 1.000000 0.000000
vn 0.000000 1.000000 0.000000
vn 0.000000 1.000000 0.000000
vn 0.000000 1.000000 0.000000
vn 0.000000 1.000000 0.000000
vn 0.000000 1.000000 0.000000
vn 0.000000 1.000000 0.000000
s 1
g Road_Turn
usemtl initialShadingGroup
f 6/1/1 7/2/2 2/4/3
f 2/4/3 7/2/2 4/3/4
f 4/3/4 7/2/2 12/6/5
f 12/6/5 7/2/2 11/5/6
f 5/9/7 10/8/8 1/10/9
f 1/10/9 10/8/8 9/7/10
f 8/11/11 11/5/6 5/9/7
f 5/9/7 11/5/6 10/8/8
f 12/6/5 11/5/6 3/12/12
f 3/12/12 11/5/6 8/11/11
f 14/14/13 13/13/14 10/8/8
f 15/15/15 11/5/6 16/16/16
f 19/19/17 20/20/18 11/5/6 7/2/2
f 6/1/1 21/21/19 7/2/2
f 11/5/6 20/20/18 17/17/20
f 11/5/6 17/17/20 16/16/16
f 14/14/13 11/5/6 15/15/15
f 10/8/8 11/5/6 14/14/13
f 10/8/8 13/13/14 23/23/21
f 10/8/8 23/23/21 24/24/22
f 10/8/8 24/24/22 9/7/10
f 7/2/2 21/21/19 22/22/23
f 7/2/2 18/18/24 19/19/17
f 7/2/2 22/22/23 18/18/24
